<svg t="1703952628309" class="icon" viewBox="0 0 1024 1024" version="1.1"
     xmlns="http://www.w3.org/2000/svg"
     p-id="9262" width="20" height="20">
    <path
            d="M512 106.666667L359.253333 343.893333 85.333333 415.573333l179.2 219.306667-16.213333 282.453333L512 814.506667l263.68 102.826666-16.213333-282.453333L938.666667 415.573333l-273.92-71.68L512 106.666667m-111.786667 341.333333c26.453333 0 47.786667 21.333333 47.786667 48.213333 0 26.453333-21.333333 47.786667-47.786667 47.786667-26.88 0-48.213333-21.333333-48.213333-47.786667 0-26.88 21.333333-48.213333 48.213333-48.213333m224 0c26.453333 0 47.786667 21.333333 47.786667 48.213333 0 26.453333-21.333333 47.786667-47.786667 47.786667-26.88 0-48.213333-21.333333-48.213333-47.786667 0-26.88 21.333333-48.213333 48.213333-48.213333M384 640h256a138.624 138.624 0 0 1-256 0z"
            p-id="9263" fill="#fb7299"></path>
</svg>