<svg t="1698745553121" class="icon" viewBox="0 0 1024 1024" version="1.1" xmlns="http://www.w3.org/2000/svg" p-id="3269"
     width="16" height="16">
    <path d="M712.832 65.856a42.688 42.688 0 0 0-60.352 0L512 206.336 414.144 108.48a42.688 42.688 0 0 0-60.288 60.352l76.48 76.48h-6.08c-78.4 0-140.544 0-189.12 6.4-50.048 6.528-90.496 20.288-122.432 51.264-32 31.04-46.08 70.4-52.864 118.976-6.528 47.232-6.528 107.52-6.528 183.68v4.672c0 76.16 0 136.512 6.528 183.744 6.784 48.64 20.928 87.936 52.864 118.976 31.936 30.976 72.384 44.8 122.432 51.264 48.64 6.4 110.72 6.4 189.12 6.4h175.488c78.4 0 140.48 0 189.12-6.4 50.048-6.528 90.496-20.288 122.432-51.264 32-31.04 46.08-70.4 52.864-118.976 6.528-47.232 6.528-107.52 6.528-183.68v-4.736c0-76.16 0-136.448-6.528-183.68-6.72-48.64-20.928-87.936-52.864-118.976-31.936-30.976-72.384-44.8-122.432-51.328-48.64-6.336-110.72-6.336-189.12-6.336h-6.08l119.168-119.168a42.688 42.688 0 0 0 0-60.288z"
          p-id="3270"></path>
</svg>