<svg t="1703952771606" class="icon" viewBox="0 0 1024 1024" version="1.1"
     xmlns="http://www.w3.org/2000/svg" p-id="14791" width="20" height="20">
    <path
            d="M909.31 307.42c-32.09-36.66-77.05-62.04-128.53-68.91-6.36-0.85-12.73-1.67-19.1-2.45l68.58-98.85c12.86-18.58 8.27-44.07-10.31-56.93-18.6-12.94-44.07-8.27-56.93 10.27L668.57 226.7h-0.01c-52.57-4.07-105.26-6.11-157.95-6.11s-105.37 2.04-157.94 6.11h-0.01L258.21 90.54c-12.9-18.54-38.43-23.21-56.93-10.27-18.58 12.86-23.17 38.35-10.31 56.93l68.59 98.85c-6.37 0.78-12.74 1.6-19.1 2.45C137.51 252.24 60.62 340.06 60.62 443.92v288.06c0 51.93 19.22 99.85 51.31 136.5 32.09 36.66 77.05 62.04 128.53 68.91a2043.998 2043.998 0 0 0 540.32 0c102.95-13.73 179.84-101.55 179.84-205.41V443.92c0-51.93-19.22-99.85-51.31-136.5z m-267.5 315.96l-148.1 115.6c-29.51 23.04-72.61 2.01-72.61-35.43v-231.2c0-37.44 43.1-58.47 72.61-35.43l148.1 115.59c23.06 18 23.06 52.88 0 70.87z"
            p-id="14792" fill="#00a1d6"></path>
</svg>